<?xml version="1.0" encoding="utf-8"?>
<!-- Generator: Adobe Illustrator 24.1.0, SVG Export Plug-In . SVG Version: 6.00 Build 0)  -->
<svg version="1.1" id="Layer_1" xmlns="http://www.w3.org/2000/svg" xmlns:xlink="http://www.w3.org/1999/xlink" viewBox="0 0 399 390" style="enable-background:new 0 0 399 390;" xml:space="preserve">
<style type="text/css">
	.st0{fill:#262262;}
	.st1{fill:#5EAEE0;}
	.st2{fill:#FFFFFF;}
	.st3{fill:#6AA7D5;}
</style>
<rect class="st0" width="399" height="390"/>
<path class="st1" d="M72.87,256.14c0,2.59,0.48,4.53,1.45,5.82c0.97,1.29,2.41,1.94,4.34,1.94c3.57,0,6.48-2.72,8.74-8.16
	c2.26-5.44,3.39-10.03,3.39-13.78c0-2.85-0.54-4.91-1.62-6.19s-2.32-1.92-3.73-1.92c-3.8,0-6.84,2.85-9.13,8.55
	C74.02,248.1,72.87,252.68,72.87,256.14 M60.22,251.73c0-3.06,0.89-6.33,2.66-9.84c1.77-3.5,4.55-6.42,8.33-8.74
	c3.79-2.33,8.28-3.49,13.5-3.49c6.48,0,11.23,1.56,14.27,4.67c3.04,3.11,4.55,6.88,4.55,11.3c0,6.08-2.33,11.35-7,15.81
	c-4.66,4.46-10.62,6.69-17.88,6.69c-5.27,0-9.66-1.34-13.17-4.03C61.98,261.41,60.22,257.29,60.22,251.73"/>
<path class="st1" d="M126.44,235.9l-4.32,19.54c-2.5,11.28-5.84,19.7-10,25.25s-9.81,8.33-16.95,8.33c-3.4,0-5.88-0.65-7.45-1.96
	s-2.35-2.89-2.35-4.75c0-1.69,0.61-3.11,1.84-4.26c1.22-1.15,2.64-1.72,4.25-1.72c3.34,0,5.27,1.8,5.78,5.41
	c0.26,1.83,1.05,2.75,2.38,2.75c1.35,0,2.58-1.22,3.69-3.66s2.45-7.37,4.04-14.79l1.34-6.32c0.4-1.51,0.69-2.71,0.86-3.58
	l4.36-20.24h-5.62l1.47-4.84h5.14c2.7-9.94,5.87-16.54,9.48-19.78c3.61-3.24,7.92-4.86,12.93-4.86c3.34,0,6.07,0.66,8.18,1.96
	c2.12,1.31,3.18,3.06,3.18,5.24c0,1.46-0.51,2.72-1.53,3.82c-1.02,1.09-2.33,1.64-3.91,1.64c-2.27,0-4.23-1.62-5.87-4.84
	c-1.21-2.41-2.43-3.62-3.67-3.62c-1.44,0-2.55,1.93-3.33,5.8l-2.85,14.65h6.44l-1.47,4.84L126.44,235.9L126.44,235.9z"/>
<path class="st2" d="M125.91,133.56l-9.35-25.08l-9.35,25.08H125.91z M99.91,67.9h33.89l43.09,104.01h-37.1l-5.41-13.87H98.59
	l-5.26,13.87H56.82L99.91,67.9z"/>
<rect x="181.26" y="64.21" class="st2" width="33.16" height="107.7"/>
<rect x="229.32" y="64.21" class="st2" width="33.16" height="107.7"/>
<path class="st2" d="M161.39,243.38v-56.95h34.77v56.51c0,12.83,6.57,18.29,15.77,18.29s15.78-5.02,15.78-17.56v-57.25h34.77v56.21
	c0,35.26-20.3,49.13-50.83,49.13C181.11,291.77,161.39,277.61,161.39,243.38"/>
<path class="st2" d="M266.67,279.97l11.25-19.03c9.64,6.05,20.45,9,29.51,9c3.21,0,4.82-0.74,4.82-2.66v-0.3
	c0-1.62-1.46-2.65-9.49-4.72c-20.16-5.02-32.58-10.48-32.58-27.15v-0.29c0-17.71,14.02-27.59,34.76-27.59
	c13.15,0,26.15,3.39,35.79,9.29l-10.52,19.92c-8.47-4.72-18.7-7.52-25.42-7.52c-3.21,0-4.67,0.88-4.67,2.51v0.3
	c0,1.62,1.75,2.65,9.79,4.72c20.16,5.02,32.28,10.62,32.28,27.15v0.3c0,17.56-13,27.74-34.62,27.74
	C292.08,291.62,278.06,287.64,266.67,279.97"/>
<path class="st3" d="M72.51,256.3c0,2.6,0.48,4.54,1.45,5.84c0.97,1.3,2.42,1.95,4.35,1.95c3.58,0,6.5-2.73,8.77-8.18
	c2.27-5.45,3.4-10.06,3.4-13.82c0-2.86-0.54-4.93-1.63-6.21c-1.08-1.28-2.33-1.92-3.74-1.92c-3.81,0-6.86,2.86-9.16,8.57
	C73.65,248.24,72.51,252.83,72.51,256.3 M59.82,251.88c0-3.06,0.89-6.35,2.67-9.86c1.77-3.51,4.56-6.44,8.35-8.77
	c3.8-2.33,8.31-3.5,13.53-3.5c6.49,0,11.26,1.56,14.31,4.68c3.04,3.12,4.57,6.89,4.57,11.33c0,6.09-2.34,11.38-7.02,15.85
	c-4.67,4.48-10.65,6.71-17.92,6.71c-5.28,0-9.68-1.35-13.21-4.04C61.58,261.59,59.82,257.45,59.82,251.88"/>
<path class="st3" d="M126.22,236.01l-4.33,19.59c-2.51,11.31-5.85,19.75-10.02,25.32c-4.17,5.57-9.83,8.35-16.99,8.35
	c-3.41,0-5.9-0.65-7.47-1.97c-1.57-1.31-2.36-2.9-2.36-4.77c0-1.69,0.62-3.11,1.84-4.27c1.23-1.15,2.65-1.73,4.26-1.73
	c3.35,0,5.28,1.81,5.8,5.42c0.26,1.84,1.06,2.75,2.38,2.75c1.36,0,2.59-1.22,3.7-3.67c1.11-2.45,2.46-7.39,4.05-14.83l1.34-6.34
	c0.4-1.51,0.69-2.71,0.87-3.59l4.38-20.29h-5.63l1.47-4.85h5.15c2.71-9.97,5.88-16.58,9.5-19.83c3.62-3.25,7.95-4.88,12.97-4.88
	c3.35,0,6.08,0.66,8.2,1.97c2.12,1.31,3.18,3.06,3.18,5.25c0,1.46-0.52,2.73-1.54,3.83c-1.03,1.09-2.33,1.64-3.92,1.64
	c-2.28,0-4.24-1.62-5.89-4.85c-1.21-2.42-2.44-3.63-3.68-3.63c-1.45,0-2.55,1.94-3.33,5.82l-2.86,14.69h6.45l-1.47,4.85H126.22z"/>
<path class="st2" d="M125.68,133.39l-9.37-25.15l-9.37,25.15H125.68z M99.61,67.56h33.98l43.21,104.29h-37.2l-5.42-13.91H98.3
	l-5.27,13.91H56.41L99.61,67.56z"/>
<rect x="181.19" y="63.86" class="st2" width="33.25" height="107.99"/>
<rect x="229.37" y="63.86" class="st2" width="33.25" height="107.99"/>
<path class="st2" d="M161.26,243.51v-57.1h34.86v56.66c0,12.87,6.59,18.34,15.82,18.34c9.23,0,15.82-5.03,15.82-17.6v-57.4h34.86
	v56.36c0,35.36-20.36,49.26-50.97,49.26C181.03,292.03,161.26,277.83,161.26,243.51"/>
<path class="st2" d="M266.82,280.19l11.28-19.08c9.67,6.06,20.51,9.03,29.59,9.03c3.22,0,4.83-0.74,4.83-2.66v-0.3
	c0-1.63-1.46-2.66-9.52-4.73c-20.21-5.03-32.66-10.5-32.66-27.22v-0.29c0-17.75,14.06-27.67,34.86-27.67
	c13.18,0,26.22,3.4,35.89,9.32l-10.55,19.97c-8.49-4.73-18.75-7.54-25.49-7.54c-3.22,0-4.69,0.89-4.69,2.51v0.3
	c0,1.63,1.76,2.66,9.81,4.73c20.21,5.03,32.37,10.65,32.37,27.22v0.3c0,17.6-13.04,27.81-34.71,27.81
	C292.3,291.88,278.24,287.89,266.82,280.19"/>
<g>
	<path class="st2" d="M64.84,317.47c1.6,0,2.53-0.78,2.53-2.02v-0.05c0-1.34-0.97-2.02-2.56-2.02h-3.09v4.08H64.84z M57,309.3h8.06
		c2.61,0,4.41,0.68,5.55,1.85c1,0.97,1.51,2.28,1.51,3.96v0.05c0,2.6-1.39,4.33-3.51,5.23l4.07,5.93h-5.46l-3.43-5.15h-0.05h-2.02
		v5.15H57V309.3z"/>
	<polygon class="st2" points="75.65,309.3 89.36,309.3 89.36,313.31 80.33,313.31 80.33,315.89 88.51,315.89 88.51,319.61 
		80.33,319.61 80.33,322.31 89.49,322.31 89.49,326.31 75.65,326.31 	"/>
	<path class="st2" d="M92.24,323.79l2.63-3.13c1.68,1.33,3.56,2.04,5.53,2.04c1.27,0,1.95-0.44,1.95-1.17v-0.05
		c0-0.7-0.56-1.09-2.87-1.63c-3.63-0.83-6.43-1.85-6.43-5.35v-0.05c0-3.16,2.51-5.44,6.6-5.44c2.9,0,5.16,0.78,7.01,2.26l-2.36,3.33
		c-1.56-1.1-3.26-1.68-4.77-1.68c-1.15,0-1.7,0.49-1.7,1.09v0.05c0,0.78,0.58,1.12,2.95,1.65c3.92,0.85,6.36,2.11,6.36,5.3v0.05
		c0,3.48-2.75,5.54-6.89,5.54C97.2,326.61,94.33,325.66,92.24,323.79"/>
	<polygon class="st2" points="110.55,309.3 124.26,309.3 124.26,313.31 115.23,313.31 115.23,315.89 123.41,315.89 123.41,319.61 
		115.23,319.61 115.23,322.31 124.38,322.31 124.38,326.31 110.55,326.31 	"/>
	<path class="st2" d="M137.97,319.61l-1.9-4.84l-1.92,4.84H137.97z M133.83,309.18h4.55l7.26,17.14h-5.07l-1.24-3.04h-6.57
		l-1.22,3.04h-4.97L133.83,309.18z"/>
	<path class="st2" d="M155.8,317.47c1.6,0,2.53-0.78,2.53-2.02v-0.05c0-1.34-0.97-2.02-2.56-2.02h-3.09v4.08H155.8z M147.96,309.3
		h8.06c2.61,0,4.41,0.68,5.55,1.85c1,0.97,1.51,2.28,1.51,3.96v0.05c0,2.6-1.39,4.33-3.51,5.23l4.07,5.93h-5.45l-3.43-5.15h-0.05
		h-2.02v5.15h-4.72V309.3z"/>
	<path class="st2" d="M165.54,317.86v-0.05c0-4.96,3.82-8.85,8.99-8.85c3.48,0,5.72,1.46,7.23,3.55l-3.55,2.75
		c-0.97-1.22-2.1-1.99-3.73-1.99c-2.39,0-4.07,2.02-4.07,4.5v0.05c0,2.55,1.68,4.54,4.07,4.54c1.78,0,2.82-0.83,3.85-2.07l3.56,2.53
		c-1.61,2.21-3.77,3.84-7.55,3.84C169.46,326.66,165.54,322.94,165.54,317.86"/>
	<polygon class="st2" points="184.56,309.3 189.28,309.3 189.28,315.67 195.35,315.67 195.35,309.3 200.07,309.3 200.07,326.31 
		195.35,326.31 195.35,319.85 189.28,319.85 189.28,326.31 184.56,326.31 	"/>
	<path class="st2" d="M219.09,317.76c1.68,0,2.7-0.88,2.7-2.21v-0.05c0-1.46-1.02-2.24-2.73-2.24h-2.22v4.5H219.09z M212.12,309.3
		h7.31c4.31,0,7.09,2.21,7.09,5.98v0.05c0,4.01-3.09,6.12-7.33,6.12h-2.34v4.86h-4.72V309.3z"/>
	<path class="st2" d="M237.01,317.47c1.61,0,2.53-0.78,2.53-2.02v-0.05c0-1.34-0.97-2.02-2.56-2.02h-3.09v4.08H237.01z
		 M229.17,309.3h8.06c2.61,0,4.41,0.68,5.55,1.85c1,0.97,1.51,2.28,1.51,3.96v0.05c0,2.6-1.39,4.33-3.51,5.23l4.07,5.93h-5.45
		l-3.43-5.15h-0.05h-2.02v5.15h-4.72V309.3z"/>
	<path class="st2" d="M259.61,317.86v-0.05c0-2.45-1.78-4.59-4.38-4.59c-2.58,0-4.31,2.09-4.31,4.54v0.05
		c0,2.45,1.78,4.59,4.36,4.59C257.88,322.4,259.61,320.31,259.61,317.86 M246.06,317.86v-0.05c0-4.89,3.95-8.85,9.21-8.85
		c5.26,0,9.16,3.91,9.16,8.8v0.05c0,4.88-3.95,8.85-9.2,8.85C249.96,326.66,246.06,322.74,246.06,317.86"/>
	<path class="st2" d="M266.47,317.86v-0.05c0-4.96,3.9-8.85,9.18-8.85c3,0,5.12,0.92,6.92,2.48l-2.78,3.33
		c-1.22-1.02-2.44-1.6-4.12-1.6c-2.46,0-4.36,2.07-4.36,4.67v0.05c0,2.75,1.92,4.72,4.63,4.72c1.15,0,2.02-0.24,2.73-0.7v-2.06
		h-3.36v-3.45h7.84v7.66c-1.8,1.48-4.31,2.63-7.4,2.63C270.44,326.66,266.47,323.01,266.47,317.86"/>
	<path class="st2" d="M294.77,317.47c1.61,0,2.53-0.78,2.53-2.02v-0.05c0-1.34-0.97-2.02-2.56-2.02h-3.09v4.08H294.77z
		 M286.93,309.3h8.06c2.61,0,4.41,0.68,5.55,1.85c1,0.97,1.51,2.28,1.51,3.96v0.05c0,2.6-1.39,4.33-3.51,5.23l4.07,5.93h-5.45
		l-3.43-5.15h-0.05h-2.02v5.15h-4.72V309.3z"/>
	<path class="st2" d="M315.12,319.61l-1.9-4.84l-1.92,4.84H315.12z M310.98,309.18h4.55l7.26,17.14h-5.07l-1.24-3.04h-6.58
		l-1.22,3.04h-4.97L310.98,309.18z"/>
	<polygon class="st2" points="324.42,309.3 329.41,309.3 333.48,315.89 337.55,309.3 342.54,309.3 342.54,326.31 337.84,326.31 
		337.84,316.55 333.48,323.21 333.38,323.21 329.05,316.59 329.05,326.31 324.42,326.31 	"/>
</g>
</svg>
